<svg width="16" height="16" viewBox="0 0 16 16" fill="none" xmlns="http://www.w3.org/2000/svg">
<g clip-path="url(#clip0_4375_6858)">
<path d="M7.19876 1.60012L7.19876 12.4689L2.16436 7.43452C2.01348 7.2888 1.8114 7.20816 1.60164 7.20998C1.39188 7.21181 1.19123 7.29594 1.04291 7.44427C0.894581 7.59259 0.810446 7.79324 0.808624 8.003C0.806801 8.21276 0.887436 8.41484 1.03316 8.56572L7.43316 14.9657C7.58319 15.1157 7.78663 15.2 7.99876 15.2C8.21089 15.2 8.41434 15.1157 8.56436 14.9657L14.9644 8.56572C15.1101 8.41484 15.1907 8.21276 15.1889 8.003C15.1871 7.79324 15.1029 7.59259 14.9546 7.44427C14.8063 7.29594 14.6056 7.21181 14.3959 7.20998C14.1861 7.20816 13.984 7.2888 13.8332 7.43452L8.79876 12.4689L8.79876 1.60012C8.79876 1.38795 8.71448 1.18447 8.56445 1.03444C8.41442 0.884408 8.21094 0.800123 7.99876 0.800123C7.78659 0.800123 7.58311 0.884408 7.43308 1.03444C7.28305 1.18447 7.19876 1.38795 7.19876 1.60012Z" fill="white"/>
</g>
<defs>
<clipPath id="clip0_4375_6858">
<rect width="16" height="16" fill="white" transform="translate(0 16) rotate(-90)"/>
</clipPath>
</defs>
</svg>
