<svg width="24" height="25" viewBox="0 0 24 25" fill="none" xmlns="http://www.w3.org/2000/svg">
<circle cx="12" cy="12.8833" r="11.625" stroke="#959EAD" stroke-width="0.75"/>
<g clip-path="url(#clip0_50_2359)">
<path d="M17.5447 7.91322C16.5247 7.44522 15.4314 7.10055 14.2881 6.90322C14.2674 6.89922 14.2467 6.90922 14.2354 6.92788C14.0947 7.17788 13.9387 7.50455 13.8301 7.76055C12.6001 7.57655 11.3767 7.57655 10.1721 7.76055C10.0634 7.49855 9.90139 7.17788 9.76072 6.92788C9.74939 6.90922 9.72872 6.89988 9.70806 6.90322C8.56539 7.09988 7.47206 7.44455 6.45139 7.91322C6.44272 7.91655 6.43472 7.92322 6.43006 7.93122C4.35606 11.0299 3.78739 14.0525 4.06606 17.0379C4.06739 17.0526 4.07539 17.0666 4.08672 17.0752C5.45539 18.0806 6.78073 18.6906 8.08206 19.0946C8.10273 19.1012 8.12472 19.0932 8.13806 19.0759C8.44606 18.6559 8.72006 18.2126 8.95539 17.7466C8.96939 17.7192 8.95606 17.6866 8.92739 17.6759C8.49206 17.5106 8.07806 17.3092 7.67939 17.0812C7.64806 17.0626 7.64539 17.0179 7.67406 16.9959C7.75806 16.9332 7.84206 16.8679 7.92206 16.8019C7.93672 16.7899 7.95672 16.7872 7.97406 16.7952C10.5927 17.9906 13.4274 17.9906 16.0147 16.7952C16.0321 16.7872 16.0521 16.7892 16.0674 16.8019C16.1474 16.8679 16.2314 16.9339 16.3161 16.9966C16.3454 17.0179 16.3434 17.0632 16.3114 17.0819C15.9127 17.3146 15.4987 17.5119 15.0627 17.6759C15.0341 17.6866 15.0221 17.7199 15.0354 17.7472C15.2754 18.2126 15.5501 18.6559 15.8521 19.0759C15.8647 19.0939 15.8874 19.1012 15.9081 19.0952C17.2154 18.6906 18.5414 18.0806 19.9094 17.0759C19.9214 17.0672 19.9287 17.0539 19.9301 17.0392C20.2634 13.5879 19.3714 10.5899 17.5647 7.93255C17.5614 7.92322 17.5534 7.91655 17.5447 7.91322ZM9.34672 15.2206C8.55806 15.2206 7.90872 14.4966 7.90872 13.6079C7.90872 12.7192 8.54539 11.9952 9.34672 11.9952C10.1541 11.9952 10.7974 12.7252 10.7847 13.6079C10.7847 14.4972 10.1474 15.2206 9.34672 15.2206ZM14.6634 15.2206C13.8754 15.2206 13.2254 14.4966 13.2254 13.6079C13.2254 12.7192 13.8621 11.9952 14.6634 11.9952C15.4707 11.9952 16.1141 12.7252 16.1014 13.6079C16.1014 14.4972 15.4707 15.2206 14.6634 15.2206Z" fill="white"/>
</g>
<defs>
<clipPath id="clip0_50_2359">
<rect width="16" height="16" fill="white" transform="translate(4 5)"/>
</clipPath>
</defs>
</svg>
