<svg width="40" height="40" viewBox="0 0 40 40" fill="none" xmlns="http://www.w3.org/2000/svg">
<path d="M40 20C40 31.0457 31.0457 40 20 40C8.9543 40 0 31.0457 0 20C0 8.9543 8.9543 0 20 0C31.0457 0 40 8.9543 40 20Z" fill="black"/>
<path fill-rule="evenodd" clip-rule="evenodd" d="M20 39.1261C30.5631 39.1261 39.1261 30.5631 39.1261 20C39.1261 9.43694 30.5631 0.873883 20 0.873883C9.43694 0.873883 0.873883 9.43694 0.873883 20C0.873883 30.5631 9.43694 39.1261 20 39.1261ZM20 40C31.0457 40 40 31.0457 40 20C40 8.9543 31.0457 0 20 0C8.9543 0 0 8.9543 0 20C0 31.0457 8.9543 40 20 40Z" fill="#00FD63"/>
<path d="M28.0276 16.54C28.6716 15.8993 29.7158 15.8993 30.3599 16.54L32.6804 18.8485C33.3244 19.4892 33.3244 20.5281 32.6804 21.1688L30.3599 23.4773C29.7158 24.118 28.6716 24.118 28.0276 23.4773L25.7071 21.1688C25.063 20.5281 25.063 19.4892 25.7071 18.8485L28.0276 16.54Z" fill="#00FD63"/>
<path d="M22.7029 11.2529C23.3469 10.6122 24.3911 10.6122 25.0352 11.2529L27.3556 13.5614C27.9997 14.2021 27.9997 15.241 27.3556 15.8817L25.0352 18.1902C24.3911 18.8309 23.3469 18.8309 22.7029 18.1902L20.3824 15.8817C19.7383 15.241 19.7383 14.2021 20.3824 13.5614L22.7029 11.2529Z" fill="#00FD63"/>
<path d="M12.8158 12.737C13.0734 12.4807 13.4911 12.4807 13.7487 12.737L15.2779 14.2584C15.5356 14.5147 15.5356 14.9302 15.2779 15.1865L13.7487 16.7078C13.4911 16.9641 13.0734 16.9641 12.8158 16.7078L11.2865 15.1865C11.0289 14.9302 11.0289 14.5147 11.2865 14.2584L12.8158 12.737Z" fill="#E4E6E7"/>
<path d="M12.8158 23.3537C13.0734 23.0974 13.4911 23.0974 13.7487 23.3537L15.2779 24.8751C15.5356 25.1314 15.5356 25.5469 15.2779 25.8032L13.7487 27.3245C13.4911 27.5808 13.0734 27.5808 12.8158 27.3245L11.2865 25.8032C11.0289 25.5469 11.0289 25.1314 11.2865 24.8751L12.8158 23.3537Z" fill="#E4E6E7"/>
<path d="M22.7029 21.8476C23.3469 21.2069 24.3911 21.2069 25.0352 21.8476L27.3556 24.1561C27.9997 24.7969 27.9997 25.8357 27.3556 26.4764L25.0352 28.7849C24.3911 29.4256 23.3469 29.4256 22.7029 28.7849L20.3824 26.4764C19.7383 25.8357 19.7383 24.7969 20.3824 24.1561L22.7029 21.8476Z" fill="#00FD63"/>
<path d="M17.7124 6.46929C18.1725 6.01163 18.9183 6.01163 19.3784 6.46929L21.5653 8.64489C22.0253 9.10255 22.0253 9.84456 21.5653 10.3022L19.3784 12.4778C18.9183 12.9355 18.1725 12.9355 17.7124 12.4778L15.5256 10.3022C15.0655 9.84456 15.0655 9.10255 15.5256 8.64489L17.7124 6.46929Z" fill="#E4E6E7"/>
<path d="M17.7124 27.5621C18.1725 27.1044 18.9183 27.1044 19.3784 27.5621L21.5653 29.7377C22.0253 30.1953 22.0253 30.9373 21.5653 31.395L19.3784 33.5706C18.9183 34.0283 18.1725 34.0283 17.7124 33.5706L15.5256 31.395C15.0655 30.9373 15.0655 30.1953 15.5256 29.7377L17.7124 27.5621Z" fill="#E4E6E7"/>
<path d="M7.59199 18.5917C7.79441 18.3903 8.12259 18.3903 8.325 18.5917L9.39354 19.6547C9.59596 19.8561 9.59596 20.1826 9.39354 20.3839L8.325 21.447C8.12259 21.6483 7.79441 21.6483 7.59199 21.447L6.52345 20.3839C6.32103 20.1826 6.32103 19.8561 6.52345 19.6547L7.59199 18.5917Z" fill="#E4E6E7"/>
<path d="M17.725 17.014C18.1856 16.5552 18.9326 16.5552 19.3932 17.014L21.5831 19.1952C22.0438 19.654 22.0438 20.398 21.5831 20.8568L19.3932 23.0379C18.9326 23.4968 18.1856 23.4968 17.725 23.0379L15.5952 20.9167C15.1344 20.4577 14.3872 20.4577 13.9264 20.9167L13.8561 20.9868H13.8537L13.3813 21.4573C13.1786 21.6592 12.85 21.6592 12.6473 21.4573L11.5773 20.3915C11.3746 20.1897 11.3746 19.8623 11.5773 19.6605L12.6473 18.5947C12.85 18.3928 13.1786 18.3928 13.3813 18.5947L13.9779 19.1889C14.4179 19.5782 15.08 19.5835 15.5259 19.2045L15.5351 19.1952L17.725 17.014Z" fill="url(#paint0_linear_4788_7930)"/>
<defs>
<linearGradient id="paint0_linear_4788_7930" x1="11.4407" y1="20.0516" x2="21.9286" y2="20.0516" gradientUnits="userSpaceOnUse">
<stop stop-color="white"/>
<stop offset="0.520709" stop-color="#00FD63"/>
</linearGradient>
</defs>
</svg>
