<svg width="40" height="40" viewBox="0 0 40 40" fill="none" xmlns="http://www.w3.org/2000/svg">
<rect width="40" height="40" rx="20" fill="#009393"/>
<path fill-rule="evenodd" clip-rule="evenodd" d="M22.0347 20.6759C21.921 20.6843 21.3339 20.7185 20.0242 20.7185C18.9824 20.7185 18.2428 20.688 17.9833 20.6759C13.9576 20.5029 10.9527 19.8182 10.9527 18.9984C10.9527 18.1785 13.9576 17.4947 17.9833 17.3189V19.994C18.2466 20.0125 19.0004 20.056 20.0421 20.056C21.2922 20.056 21.9182 20.0051 22.0309 19.9949V17.3208C26.0481 17.4957 29.0464 18.1804 29.0464 18.9984C29.0464 19.8163 26.0491 20.5011 22.0309 20.675L22.0347 20.6759ZM22.0347 17.0441V14.6503H27.641V11H12.377V14.6503H17.9824V17.0432C13.4263 17.2477 10 18.1295 10 19.1862C10 20.2429 13.4263 21.1238 17.9824 21.3292V29H22.0337V21.3264C26.5794 21.1219 30 20.241 30 19.1853C30 18.1295 26.5822 17.2486 22.0337 17.0432L22.0347 17.0441Z" fill="white"/>
</svg>
