<svg width="42" height="44" viewBox="0 0 42 44" fill="none" xmlns="http://www.w3.org/2000/svg">
  <path
    d="M33.1114 16.5869C34.0865 15.6118 35.6674 15.6118 36.6425 16.5869L40.1558 20.1001C41.1309 21.0752 41.1309 22.6561 40.1558 23.6312L36.6425 27.1445C35.6674 28.1196 34.0865 28.1196 33.1114 27.1445L29.5981 23.6312C28.623 22.6561 28.623 21.0752 29.5981 20.1001L33.1114 16.5869Z"
    fill="url(#paint0_linear_50_2285)" />
  <path
    d="M33.1114 16.5869C34.0865 15.6118 35.6674 15.6118 36.6425 16.5869L40.1558 20.1001C41.1309 21.0752 41.1309 22.6561 40.1558 23.6312L36.6425 27.1445C35.6674 28.1196 34.0865 28.1196 33.1114 27.1445L29.5981 23.6312C28.623 22.6561 28.623 21.0752 29.5981 20.1001L33.1114 16.5869Z"
    fill="url(#paint1_linear_50_2285)" />
  <path
    d="M25.0508 8.54242C26.0259 7.56733 27.6069 7.56733 28.582 8.54242L32.0952 12.0557C33.0703 13.0308 33.0703 14.6117 32.0952 15.5868L28.582 19.1C27.6069 20.0751 26.0259 20.0751 25.0508 19.1L21.5376 15.5868C20.5625 14.6117 20.5625 13.0308 21.5376 12.0557L25.0508 8.54242Z"
    fill="url(#paint2_linear_50_2285)" />
  <path
    d="M25.0508 8.54242C26.0259 7.56733 27.6069 7.56733 28.582 8.54242L32.0952 12.0557C33.0703 13.0308 33.0703 14.6117 32.0952 15.5868L28.582 19.1C27.6069 20.0751 26.0259 20.0751 25.0508 19.1L21.5376 15.5868C20.5625 14.6117 20.5625 13.0308 21.5376 12.0557L25.0508 8.54242Z"
    fill="url(#paint3_linear_50_2285)" />
  <path
    d="M10.0809 10.7997C10.4709 10.4097 11.1033 10.4097 11.4933 10.7997L13.8087 13.1151C14.1987 13.5051 14.1987 14.1375 13.8087 14.5275L11.4933 16.8428C11.1033 17.2329 10.4709 17.2329 10.0809 16.8428L7.76556 14.5275C7.37552 14.1375 7.37552 13.5051 7.76556 13.1151L10.0809 10.7997Z"
    fill="#E4E6E7" />
  <path
    d="M10.0809 26.9574C10.4709 26.5674 11.1033 26.5674 11.4933 26.9574L13.8087 29.2728C14.1987 29.6628 14.1987 30.2952 13.8087 30.6852L11.4933 33.0006C11.1033 33.3906 10.4709 33.3906 10.0809 33.0006L7.76556 30.6852C7.37552 30.2952 7.37552 29.6628 7.76556 29.2728L10.0809 26.9574Z"
    fill="#E4E6E7" />
  <path
    d="M25.0508 24.664C26.0259 23.6889 27.6069 23.6889 28.582 24.664L32.0952 28.1772C33.0703 29.1523 33.0703 30.7333 32.0952 31.7084L28.582 35.2216C27.6069 36.1967 26.0259 36.1967 25.0508 35.2216L21.5376 31.7084C20.5625 30.7333 20.5625 29.1523 21.5376 28.1772L25.0508 24.664Z"
    fill="url(#paint4_linear_50_2285)" />
  <path
    d="M25.0508 24.664C26.0259 23.6889 27.6069 23.6889 28.582 24.664L32.0952 28.1772C33.0703 29.1523 33.0703 30.7333 32.0952 31.7084L28.582 35.2216C27.6069 36.1967 26.0259 36.1967 25.0508 35.2216L21.5376 31.7084C20.5625 30.7333 20.5625 29.1523 21.5376 28.1772L25.0508 24.664Z"
    fill="url(#paint5_linear_50_2285)" />
  <path
    d="M17.4947 1.26112C18.1912 0.564622 19.3205 0.564623 20.017 1.26112L23.3279 4.57209C24.0244 5.26858 24.0244 6.39783 23.3279 7.09433L20.017 10.4053C19.3205 11.1018 18.1912 11.1018 17.4947 10.4053L14.1838 7.09433C13.4873 6.39783 13.4873 5.26858 14.1838 4.57209L17.4947 1.26112Z"
    fill="#E4E6E7" />
  <path
    d="M17.4947 33.3619C18.1912 32.6655 19.3205 32.6655 20.017 33.3619L23.3279 36.6729C24.0244 37.3694 24.0244 38.4987 23.3279 39.1952L20.017 42.5061C19.3205 43.2026 18.1912 43.2026 17.4947 42.5061L14.1838 39.1952C13.4873 38.4987 13.4873 37.3694 14.1838 36.6729L17.4947 33.3619Z"
    fill="#E4E6E7" />
  <path
    d="M2.17362 19.7104C2.48008 19.404 2.97695 19.404 3.28341 19.7104L4.9012 21.3282C5.20766 21.6347 5.20766 22.1315 4.9012 22.438L3.28341 24.0558C2.97695 24.3622 2.48008 24.3622 2.17362 24.0558L0.555831 22.438C0.249373 22.1315 0.249373 21.6347 0.555831 21.3282L2.17362 19.7104Z"
    fill="#E4E6E7" />
  <path
    d="M17.5144 17.3079C18.2119 16.6096 19.3427 16.6096 20.0402 17.3079L23.3557 20.6273C24.0532 21.3256 24.0532 22.4578 23.3557 23.156L20.0402 26.4755C19.3427 27.1738 18.2119 27.1738 17.5144 26.4755L14.29 23.2473C13.5923 22.5488 12.4611 22.5488 11.7634 23.2473L11.6569 23.3539H11.6533L10.9381 24.0699C10.6312 24.3772 10.1337 24.3772 9.82679 24.0699L8.20675 22.448C7.89983 22.1408 7.89983 21.6426 8.20675 21.3354L9.82679 19.7134C10.1337 19.4062 10.6312 19.4062 10.9381 19.7134L11.8414 20.6178C12.5075 21.2103 13.51 21.2182 14.185 20.6415L14.1989 20.6273L17.5144 17.3079Z"
    fill="url(#paint6_linear_50_2285)" />
  <defs>
    <linearGradient id="paint0_linear_50_2285" x1="38.5297" y1="22.6707" x2="28.2344" y2="33.7814"
      gradientUnits="userSpaceOnUse">
      <stop stop-color="white" />
      <stop offset="1" stop-color="white" stop-opacity="0.08" />
    </linearGradient>
    <linearGradient id="paint1_linear_50_2285" x1="28.3004" y1="22.3335" x2="47.5418" y2="35.657"
      gradientUnits="userSpaceOnUse">
      <stop stop-color="#009F66" />
      <stop offset="0.724237" stop-color="#00D287" />
    </linearGradient>
    <linearGradient id="paint2_linear_50_2285" x1="30.4692" y1="14.6263" x2="20.1738" y2="25.7369"
      gradientUnits="userSpaceOnUse">
      <stop stop-color="white" />
      <stop offset="1" stop-color="white" stop-opacity="0.08" />
    </linearGradient>
    <linearGradient id="paint3_linear_50_2285" x1="20.2398" y1="14.289" x2="39.4812" y2="27.6126"
      gradientUnits="userSpaceOnUse">
      <stop stop-color="#009F66" />
      <stop offset="0.724237" stop-color="#00D287" />
    </linearGradient>
    <linearGradient id="paint4_linear_50_2285" x1="30.4692" y1="30.7478" x2="20.1738" y2="41.8585"
      gradientUnits="userSpaceOnUse">
      <stop stop-color="white" />
      <stop offset="1" stop-color="white" stop-opacity="0.08" />
    </linearGradient>
    <linearGradient id="paint5_linear_50_2285" x1="20.2398" y1="30.4106" x2="39.4812" y2="43.7342"
      gradientUnits="userSpaceOnUse">
      <stop stop-color="#009F66" />
      <stop offset="0.724237" stop-color="#00D287" />
    </linearGradient>
    <linearGradient id="paint6_linear_50_2285" x1="8" y1="21.9307" x2="23.8788" y2="21.9307"
      gradientUnits="userSpaceOnUse">
      <stop stop-color="white" />
      <stop offset="0.520709" stop-color="#01AF70" />
    </linearGradient>
  </defs>
</svg>