<svg width="24" height="25" viewBox="0 0 24 25" fill="none" xmlns="http://www.w3.org/2000/svg">
<circle cx="12" cy="12.8833" r="11.625" stroke="#959EAD" stroke-width="0.75"/>
<path fill-rule="evenodd" clip-rule="evenodd" d="M16.5492 7.08387C17.3069 6.76377 18.1192 7.40662 17.9854 8.22051L16.4051 17.8337C16.2528 18.7606 15.2381 19.2924 14.3905 18.8305C13.6813 18.444 12.629 17.8491 11.6807 17.2274C11.2071 16.9169 9.75707 15.9214 9.9353 15.2128C10.0877 14.6069 12.5254 12.3302 13.9184 10.9763C14.4655 10.4445 14.2163 10.1372 13.5701 10.6269C11.9671 11.8416 9.39337 13.6885 8.54228 14.2083C7.79136 14.6668 7.39929 14.7451 6.93163 14.6668C6.07763 14.524 5.28587 14.3029 4.63946 14.0341C3.7658 13.6707 3.80835 12.4661 4.63887 12.1153L16.5492 7.08387Z" fill="white"/>
</svg>
